<?xml version="1.0" standalone="no"?>
<!DOCTYPE svg PUBLIC "-//W3C//DTD SVG 20010904//EN"
 "http://www.w3.org/TR/2001/REC-SVG-20010904/DTD/svg10.dtd">
<svg version="1.0" xmlns="http://www.w3.org/2000/svg"
 width="772.000000pt" height="353.000000pt" viewBox="0 0 772.000000 353.000000"
 preserveAspectRatio="xMidYMid meet">

<g transform="translate(0.000000,353.000000) scale(0.100000,-0.100000)"
fill="#000000" stroke="none">
<path d="M3571 3515 c-120 -27 -228 -89 -430 -248 -76 -60 -105 -77 -150 -87
-31 -6 -129 -32 -218 -56 -88 -24 -164 -44 -168 -44 -4 0 -5 23 -1 50 5 38 3
50 -6 50 -22 0 -478 -96 -483 -102 -3 -3 -8 -41 -12 -85 l-6 -80 -106 -38
c-315 -113 -761 -306 -1019 -441 -510 -266 -782 -487 -907 -736 -54 -108 -68
-175 -63 -297 3 -82 8 -106 34 -161 94 -198 285 -322 653 -425 301 -84 860
-155 1217 -155 l81 0 -4 -53 c-1 -28 -5 -105 -9 -170 l-6 -118 -82 6 c-104 8
-347 31 -503 47 -67 6 -125 9 -128 6 -14 -13 19 -51 59 -69 45 -19 307 -60
519 -80 l127 -12 0 -51 c1 -65 14 -125 34 -144 22 -23 89 -18 188 12 l87 27 5
42 c3 23 7 53 8 67 l3 24 168 -3 168 -3 57 -39 c146 -99 337 -87 521 35 49 32
80 46 121 51 623 79 1118 165 1499 260 1712 424 2901 1196 2901 1881 0 105
-14 171 -55 259 -183 397 -816 674 -1760 770 -526 53 -1079 45 -1734 -26 -181
-20 -194 -21 -203 -5 -66 117 -236 178 -397 141z m1649 -235 c1292 -69 2117
-489 2032 -1037 -103 -662 -1361 -1391 -2957 -1712 -200 -40 -395 -72 -706
-114 l-166 -23 82 110 c125 169 339 483 378 556 106 194 102 381 -9 517 -83
101 -256 196 -443 243 l-43 11 78 52 c98 63 274 238 337 333 104 159 167 319
213 544 31 153 40 300 25 399 -6 40 -10 75 -9 76 2 2 82 11 179 20 347 33 688
42 1009 25z m-2514 -388 c-44 -42 -95 -89 -112 -105 l-30 -27 8 66 c4 37 9 69
12 71 4 4 187 72 197 73 4 0 -30 -35 -75 -78z m675 -93 c93 -66 88 -226 -11
-394 -98 -166 -336 -349 -553 -426 -23 -8 -39 -21 -42 -34 -2 -11 -15 -75 -27
-142 l-23 -121 76 -12 c283 -41 489 -151 556 -296 22 -50 25 -66 21 -140 -4
-75 -9 -93 -51 -178 -87 -175 -295 -414 -409 -470 -79 -39 -124 -43 -182 -18
-60 27 -81 73 -91 196 l-8 88 -66 -6 c-36 -3 -100 -9 -142 -12 l-76 -6 4 28
c2 16 33 301 68 634 36 333 69 638 74 678 l9 72 103 118 c242 276 426 419 598
462 56 14 136 5 172 -21z m-1341 -1034 c-25 -519 -48 -946 -51 -949 -7 -8
-381 12 -474 24 -164 22 -415 75 -525 112 -136 44 -276 127 -368 218 -214 211
-219 452 -13 697 136 163 563 435 1011 644 180 84 440 197 455 198 6 1 -6
-337 -35 -944z m438 -1336 c11 -31 27 -70 36 -87 l17 -32 -116 0 c-95 0 -115
3 -115 15 0 22 30 297 36 322 3 19 12 22 57 25 l52 3 6 -95 c4 -55 15 -119 27
-151z"/>
<path d="M5832 2425 c-55 -46 -102 -91 -106 -100 -18 -49 37 -45 144 9 l85 44
97 -49 c95 -48 150 -60 164 -38 7 12 -70 95 -159 170 -86 72 -102 70 -225 -36z"/>
<path d="M5881 2219 c-124 -24 -288 -187 -368 -368 -14 -31 -63 -146 -108
-257 -83 -200 -160 -362 -151 -314 3 14 19 95 37 180 41 202 45 328 11 382
-13 20 -40 47 -60 60 -48 30 -136 29 -246 -1 -80 -22 -95 -20 -96 16 0 26 -52
73 -80 73 -47 0 -53 -18 -48 -138 5 -101 4 -111 -24 -181 -16 -40 -49 -130
-74 -199 -129 -355 -239 -544 -291 -501 -11 10 -13 24 -8 58 8 56 69 323 135
598 28 113 50 207 50 208 0 6 -326 -78 -334 -86 -16 -14 -66 -434 -72 -609 -6
-156 -6 -167 15 -211 29 -61 85 -117 131 -129 42 -11 122 0 168 24 98 51 179
192 306 533 42 111 89 231 105 266 26 59 32 66 75 80 l46 16 -16 -31 c-40 -78
-56 -145 -61 -259 -5 -101 -3 -126 16 -185 28 -92 76 -155 142 -188 100 -50
180 -26 255 76 45 61 113 195 149 290 l17 46 35 -68 c36 -73 95 -134 161 -166
28 -14 59 -19 127 -19 81 0 95 3 144 30 136 75 237 237 277 443 37 192 2 355
-99 459 -59 62 -167 91 -266 72z m143 -182 c34 -47 35 -181 2 -299 -36 -125
-115 -286 -161 -326 -45 -40 -82 -42 -95 -6 -44 115 53 511 156 633 33 39 68
39 98 -2z"/>
<path d="M4315 2124 c-46 -24 -64 -44 -76 -84 -42 -140 187 -193 272 -64 30
46 25 90 -15 130 -31 31 -39 34 -92 34 -34 0 -72 -7 -89 -16z"/>
</g>
</svg>
